<svg xmlns="http://www.w3.org/2000/svg" width="1200" height="800" viewBox="0 0 1200 800" role="img" aria-label="kerbstones - catalogue view 1">
  <defs>
    <linearGradient id="sky" x1="0" x2="1" y1="0" y2="1">
      <stop offset="0%" stop-color="#f8fafc"/>
      <stop offset="55%" stop-color="#e2e8f0"/>
      <stop offset="100%" stop-color="#cbd5e1"/>
    </linearGradient>
    <linearGradient id="face" x1="0" x2="1" y1="0" y2="1">
      <stop offset="0%" stop-color="#e2e8f0"/>
      <stop offset="55%" stop-color="#64748b"/>
      <stop offset="100%" stop-color="#475569"/>
    </linearGradient>
    <filter id="shadow" x="-20%" y="-20%" width="140%" height="140%">
      <feDropShadow dx="0" dy="18" stdDeviation="18" flood-color="#0f172a" flood-opacity=".28"/>
    </filter>
  </defs>
  <rect width="1200" height="800" fill="url(#sky)"/>
  <rect y="540" width="1200" height="260" fill="#475569"/>
  <path d="M0 610c185-60 362-61 540-8s385 56 660-21v219H0z" fill="#334155" opacity=".55"/>
  <g opacity=".5">
    <rect x="80" y="86" width="1060" height="420" rx="30" fill="#ffffff"/>
    <rect x="110" y="116" width="1000" height="360" rx="20" fill="#f1f5f9"/>
  </g>
  <g filter="url(#shadow)">
    <g transform="translate(65,135)">
      <path d="M0 38h116v112c0 48-116 48-116 0z" fill="url(#face)" stroke="#475569" stroke-width="3"/>
            <path d="M20 58h76v86c0 26-76 26-76 0z" fill="#0f172a" opacity=".16"/><path d="M136 112h116v112c0 48-116 48-116 0z" fill="url(#face)" stroke="#475569" stroke-width="3"/>
            <path d="M156 132h76v86c0 26-76 26-76 0z" fill="#0f172a" opacity=".16"/><path d="M272 38h116v112c0 48-116 48-116 0z" fill="url(#face)" stroke="#475569" stroke-width="3"/>
            <path d="M292 58h76v86c0 26-76 26-76 0z" fill="#0f172a" opacity=".16"/><path d="M408 112h116v112c0 48-116 48-116 0z" fill="url(#face)" stroke="#475569" stroke-width="3"/>
            <path d="M428 132h76v86c0 26-76 26-76 0z" fill="#0f172a" opacity=".16"/>
    </g></g>
  <g transform="translate(68,640)">
    <rect width="700" height="96" rx="16" fill="#0f172a" opacity=".94"/>
    <text x="28" y="38" font-family="Arial, sans-serif" font-size="28" font-weight="800" fill="#fbbf24">KERB</text>
    <text x="28" y="72" font-family="Arial, sans-serif" font-size="25" font-weight="800" fill="#ffffff">kerbstones</text>
  </g>
  <g transform="translate(830,650)">
    <rect width="292" height="72" rx="16" fill="#ffffff" opacity=".95"/>
    <text x="24" y="30" font-family="Arial, sans-serif" font-size="15" font-weight="800" fill="#64748b">CATALOGUE VISUAL</text>
    <text x="24" y="55" font-family="Arial, sans-serif" font-size="20" font-weight="900" fill="#0f172a">View 01 / 10</text>
  </g>
</svg>